<svg width="35" height="35" viewBox="0 0 35 35" fill="none" xmlns="http://www.w3.org/2000/svg">
<g clip-path="url(#clip0_213_98)">
<circle cx="17.5" cy="17.5" r="13.5" fill="white"/>
<path d="M17.1646 16.3917H14.5192V11.9612H17.6575C19.3637 11.9612 20.3321 12.7225 20.3321 14.0992C20.3321 15.5692 19.2048 16.3917 17.1617 16.3917H17.1646ZM17.6371 18.1504H14.5206V23.0329H17.7742C19.9019 23.0329 21.0292 22.1798 21.0292 20.5756C21.0292 18.9715 19.8698 18.1504 17.6371 18.1504ZM35 16.6104V18.3867C33.355 18.5442 32.3502 19.7633 31.7538 21.6942C31.1602 23.6177 31.0785 25.9773 31.1413 27.7987C31.2069 29.6946 29.7296 31.4446 27.7331 31.4446H7.26979C5.27188 31.4446 3.79458 29.6946 3.86167 27.7987C3.92438 25.9773 3.84271 23.6177 3.24917 21.6942C2.65125 19.7633 1.645 18.5442 0 18.3867V16.6104C1.645 16.4529 2.65271 15.2337 3.24771 13.3029C3.84271 11.3794 3.92438 9.01979 3.86021 7.19833C3.79458 5.3025 5.27188 3.5525 7.26979 3.5525H27.7331C29.731 3.5525 31.2069 5.3025 31.1413 7.19833C31.0785 9.01979 31.1602 11.3794 31.7538 13.3029C32.3502 15.2337 33.355 16.4529 35 16.6104ZM23.4398 20.7185C23.4398 18.744 22.05 17.3162 19.9865 17.0902V17.0071C21.5031 16.7606 22.6931 15.3519 22.6931 13.7798C22.6931 11.5383 20.9242 10.0785 18.2277 10.0785H12.161V24.9127H18.2583C21.4929 24.9127 23.4398 23.329 23.4398 20.7185Z" fill="#E4405F"/>
</g>
<defs>
<clipPath id="clip0_213_98">
<rect width="35" height="35" fill="white"/>
</clipPath>
</defs>
</svg>
