<svg width="35" height="35" viewBox="0 0 35 35" fill="none" xmlns="http://www.w3.org/2000/svg">
<path d="M17.5117 32.1667L7.28011 29.251L5 2.99998H30.0541L27.7716 29.247L17.5117 32.1667Z" fill="#E22549"/>
<path d="M25.8175 27.5756L27.7679 5.14632H17.527V29.9349L25.8175 27.5756Z" fill="#E4405F"/>
<path d="M10.2271 14.8825L10.5081 18.1021H17.527V14.8825H10.2271ZM9.66216 8.36602L9.94726 11.5856H17.527V8.36602H9.66216ZM17.527 23.2441L17.5133 23.2479L14.0202 22.2797L13.7969 19.7119H10.6483L11.0877 24.7672L17.5126 26.5979L17.527 26.5939V23.2441Z" fill="#EBEBEB"/>
<path d="M24.8069 14.8825L25.3731 8.36602H17.5162V11.5856H21.9358L21.6504 14.8825H17.5162V18.1021H21.3785L21.0143 22.2777L17.5161 23.2468V26.5964L23.9461 24.7672L24.7304 15.7471L24.8069 14.8825Z" fill="white"/>
</svg>
