<svg width="35" height="35" viewBox="0 0 35 35" fill="none" xmlns="http://www.w3.org/2000/svg">
<path opacity="0.5" d="M17.4998 2.91667H12.6388C9.95405 2.91667 7.77765 5.09306 7.77765 7.77778C7.77765 10.4625 9.95404 12.6389 12.6388 12.6389H17.4998V2.91667Z" stroke="#2992C9" stroke-width="2.1875"/>
<path d="M17.4998 12.6386H12.6388C9.95405 12.6386 7.77765 14.8151 7.77765 17.4997C7.77765 20.1845 9.95404 22.3609 12.6388 22.3609H17.4998V12.6386Z" stroke="#2992C9" stroke-width="2.1875"/>
<path opacity="0.5" d="M27.2223 17.4997C27.2223 20.1845 25.0459 22.3609 22.3611 22.3609C19.6764 22.3609 17.5 20.1845 17.5 17.4997C17.5 14.8151 19.6764 12.6386 22.3611 12.6386C25.0459 12.6386 27.2223 14.8151 27.2223 17.4997Z" stroke="#2992C9" stroke-width="2.1875"/>
<path opacity="0.5" d="M12.6388 22.3614H17.4998V27.2224C17.4998 29.9072 15.3234 32.0836 12.6388 32.0836C9.95405 32.0836 7.77765 29.9072 7.77765 27.2224C7.77765 24.5378 9.95404 22.3614 12.6388 22.3614Z" stroke="#2992C9" stroke-width="2.1875"/>
<path d="M17.5 2.91667H22.3611C25.0459 2.91667 27.2223 5.09306 27.2223 7.77778C27.2223 10.4625 25.0459 12.6389 22.3611 12.6389H17.5V2.91667Z" stroke="#2992C9" stroke-width="2.1875"/>
</svg>
