<svg width="35" height="35" viewBox="0 0 35 35" fill="none" xmlns="http://www.w3.org/2000/svg">
<path d="M2.82774 19.0457C1.97409 18.192 1.97409 16.808 2.82774 15.9543L15.9543 2.82774C16.808 1.97409 18.192 1.97409 19.0457 2.82774L32.1722 15.9543C33.0259 16.808 33.0259 18.192 32.1722 19.0457L19.0457 32.1722C18.192 33.0259 16.808 33.0259 15.9543 32.1722L2.82774 19.0457Z" fill="#2992C9"/>
<path d="M13.2879 5.53604L11.9586 6.86532L15.3918 10.2985C15.2529 10.5965 15.1753 10.9288 15.1753 11.2792C15.1753 12.2741 15.8004 13.1229 16.6792 13.4544V21.8529C15.8004 22.1844 15.1753 23.0333 15.1753 24.0282C15.1753 25.3118 16.2159 26.3524 17.4996 26.3524C18.7832 26.3524 19.8238 25.3118 19.8238 24.0282C19.8238 23.1263 19.31 22.3442 18.5592 21.959V13.4659L21.841 16.7477C21.7089 17.0396 21.6354 17.3637 21.6354 17.705C21.6354 18.9886 22.6759 20.0292 23.9596 20.0292C25.2432 20.0292 26.2838 18.9886 26.2838 17.705C26.2838 16.4213 25.2432 15.3808 23.9596 15.3808C23.7101 15.3808 23.4699 15.42 23.2446 15.4928L19.72 11.9681C19.7875 11.7505 19.8238 11.5191 19.8238 11.2792C19.8238 9.99554 18.7832 8.95495 17.4996 8.95495C17.2597 8.95495 17.0284 8.9913 16.8106 9.05877L13.2879 5.53604Z" fill="white"/>
</svg>
