<svg width="35" height="35" viewBox="0 0 35 35" fill="none" xmlns="http://www.w3.org/2000/svg">
<path d="M32.8125 2.1875H2.1875V32.8125H32.8125V2.1875Z" fill="#E4405F"/>
<path d="M20.7812 27.6586L23.036 26.1665C23.2128 26.7217 24.3318 28.0403 25.7452 28.0403C27.1587 28.0403 27.8149 27.2683 27.8149 26.7564C27.8149 25.3617 26.3716 24.8699 25.6784 24.6338C25.5653 24.5953 25.4723 24.5635 25.4087 24.5359C25.376 24.5217 25.3267 24.5027 25.2633 24.4786C24.4923 24.184 21.6478 23.0973 21.6478 19.9471C21.6478 16.4773 24.9963 16.0783 25.7537 16.0783C26.249 16.0783 28.631 16.139 29.8173 18.3683L27.6298 19.8951C27.1503 18.9235 26.3535 18.6026 25.863 18.6026C24.6515 18.6026 24.399 19.4907 24.399 19.8951C24.399 21.0295 25.7154 21.538 26.8267 21.9673C27.1176 22.0796 27.3943 22.1865 27.6298 22.2978C28.8413 22.8703 30.625 23.8072 30.625 26.7564C30.625 28.2336 29.386 30.6252 26.2668 30.6252C22.0769 30.6252 20.9663 28.1097 20.7812 27.6586Z" fill="white"/>
<path d="M9.84375 27.9548L12.1939 26.4636C12.378 27.0185 13.0936 28.0416 14.1318 28.0416C15.1701 28.0416 15.7015 26.9752 15.7015 26.4636V16.4065H18.5918V26.4636C18.6386 27.8508 17.8693 30.6252 14.4738 30.6252C11.352 30.6252 10.0542 28.7699 9.84375 27.9548Z" fill="white"/>
</svg>
