<svg width="35" height="35" viewBox="0 0 35 35" fill="none" xmlns="http://www.w3.org/2000/svg">
<path d="M13.2561 14.244C12.9328 13.5292 12.7879 12.6955 13.0349 11.9381C13.2818 11.1638 13.8349 10.5427 14.388 9.96406C15.9278 8.42386 17.8255 7.29224 19.3315 5.72674C20.1653 4.86726 20.8544 3.8377 21.0926 2.65487C21.2883 1.78705 21.1948 0.893662 21.0162 0.0341797C21.816 0.944658 22.0798 2.24649 21.85 3.42077C21.6033 4.73956 20.8713 5.90522 20.0121 6.90922C19.3229 7.7177 18.5315 8.4324 17.7062 9.09624C16.7448 9.87055 15.8004 10.7043 15.1964 11.7935C14.6856 12.6783 14.5664 13.7674 14.9154 14.729C15.4856 16.3796 16.8128 17.6049 17.5362 19.162C16.7361 18.4557 15.9535 17.7239 15.2215 16.9498C14.456 16.1329 13.7326 15.2651 13.2561 14.244ZM17.5956 12.9505C17.451 14.3035 18.157 15.5798 18.9996 16.5839C19.4078 17.0348 19.7567 17.5879 19.7736 18.2176C19.7908 19.0597 19.3145 19.8428 18.7015 20.3956C18.8463 20.3788 18.9484 20.2511 19.0675 20.183C19.9865 19.5959 20.8712 18.8556 21.3222 17.8433C21.62 17.154 21.552 16.3371 21.1607 15.6988C20.7011 14.9501 20.0971 14.2864 19.7398 13.4696C19.5438 13.0102 19.4758 12.4742 19.6375 11.9891C19.8504 11.3341 20.3098 10.7979 20.7948 10.3299C22.1306 9.06227 23.7472 8.15999 25.2959 7.17315C23.3388 7.73466 21.4074 8.50903 19.7567 9.7259C18.7101 10.5087 17.7403 11.5977 17.5956 12.9505ZM26.8958 19.3493C27.8233 19.4004 28.7334 20.081 28.9038 21.017C29.0655 21.8254 28.6742 22.6251 28.172 23.2377C27.3465 24.2246 26.2318 24.931 25.109 25.5352C24.9981 25.6029 24.9046 25.6881 24.8195 25.7818C26.3001 25.4073 27.7804 24.846 28.9803 23.8844C29.6438 23.3313 30.2309 22.5993 30.3587 21.723C30.4778 20.9658 30.1632 20.183 29.6015 19.681C28.9206 19.0596 27.9594 18.8301 27.0573 18.9493C26.5382 19.0173 25.9682 19.1279 25.6109 19.5619C26.0365 19.477 26.4531 19.3067 26.8958 19.3493ZM8.42324 21.7825C9.5377 22.0804 10.6865 22.1655 11.8266 22.2422C12.8477 22.3102 13.8689 22.3273 14.8985 22.3187C17.5531 22.2764 20.2248 22.0975 22.8284 21.519C23.075 21.4595 23.3475 21.4169 23.5689 21.2638C24.0028 20.9828 24.479 20.7616 24.9472 20.5404C22.8284 20.8807 20.7012 21.1703 18.5571 21.3063C16.3874 21.4424 14.2005 21.5275 12.0224 21.3829C11.4013 21.3235 10.763 21.2892 10.1845 21.0509C10.0482 20.9914 9.86097 20.8725 9.92899 20.6935C10.0568 20.4638 10.312 20.3533 10.5332 20.2342C11.4693 19.7917 12.4903 19.545 13.4859 19.2557C11.7754 19.23 10.0736 19.6639 8.50835 20.3362C8.15937 20.5065 7.76801 20.6425 7.48733 20.9319C7.37645 21.0508 7.37645 21.2554 7.50421 21.3572C7.75954 21.587 8.09969 21.6891 8.42324 21.7825ZM22.2075 24.1227C20.7184 24.3865 19.2206 24.6334 17.7145 24.7098C16.0638 24.8204 14.4132 24.7267 12.7796 24.5566C12.4648 24.514 12.1499 24.4631 11.8692 24.3185C11.7246 24.2333 11.58 24.0973 11.5886 23.9183C11.6054 23.6376 11.8435 23.4421 12.0139 23.2377C11.4865 23.425 10.9588 23.6205 10.5164 23.9697C10.329 24.1144 10.1419 24.3439 10.1929 24.5992C10.2698 24.897 10.559 25.0757 10.8142 25.2117C11.4437 25.5352 12.15 25.6797 12.8394 25.8074C14.5833 26.0883 16.3617 26.0969 18.1145 25.9775C19.9698 25.8329 21.816 25.5267 23.6113 24.999C23.1008 24.7695 22.6157 24.5054 22.2075 24.1227ZM12.8562 27.067C12.3797 27.203 11.8947 27.3648 11.5034 27.6793C11.3073 27.8325 11.1544 28.0965 11.2481 28.3432C11.3673 28.658 11.6651 28.8455 11.9456 29.0067C12.6776 29.4068 13.5028 29.5938 14.3111 29.7387C16.1407 30.0277 18.021 29.9853 19.8419 29.6621C20.9224 29.4578 22.0031 29.1685 23.007 28.7177C22.3519 28.4454 21.7139 28.1389 21.1013 27.7817C20.0377 27.9688 18.9653 28.1647 17.8762 28.2327C16.4385 28.3433 14.9833 28.2241 13.5453 28.0455C13.2049 27.9689 12.7796 27.9349 12.5498 27.637C12.4309 27.39 12.7031 27.2113 12.8562 27.067ZM24.4962 32.5378C25.6873 32.2915 26.8872 32.0102 27.9763 31.4573C28.3164 31.2614 28.7334 31.0486 28.8443 30.6404C28.9038 30.2491 28.4953 30.0448 28.206 29.883C28.3847 30.0876 28.5038 30.3853 28.325 30.6234C28.0271 31.0235 27.5169 31.1765 27.0658 31.3296C25.6535 31.7296 24.1898 31.8913 22.7349 32.053C18.8804 32.4018 15.0003 32.487 11.1461 32.1636C9.8527 32.0273 8.53357 31.8827 7.29989 31.4234C7.10438 31.3382 6.80654 31.253 6.80654 30.9892C6.8829 30.7599 7.10438 30.6318 7.29989 30.5212C8.1848 30.0704 9.17184 29.8235 10.1588 29.764C9.86979 29.5937 9.52936 29.5768 9.19754 29.5854C8.37204 29.6109 7.56376 29.8235 6.78111 30.0876C6.10886 30.334 5.41966 30.6065 4.88345 31.1001C4.67079 31.2871 4.47528 31.6444 4.69622 31.8998C5.03665 32.2658 5.56431 32.3592 6.03196 32.4698C8.65272 32.9209 11.3073 33.1758 13.9624 33.2696C17.485 33.372 21.0331 33.2187 24.4962 32.5378ZM27.9848 32.9975C26.3851 33.508 24.726 33.7887 23.0751 34.0185C20.2248 34.3758 17.3487 34.4864 14.4812 34.4015C12.7371 34.3335 10.9929 34.2143 9.2739 33.9248C9.6738 34.1971 10.1674 34.2821 10.627 34.4099C12.5586 34.8184 14.5409 34.8949 16.5066 34.9544C19.3907 35.0055 22.2752 34.8949 25.1173 34.4439C26.4618 34.206 27.8147 33.9165 29.0227 33.2868C29.6526 32.955 30.2909 32.4442 30.401 31.7041C29.7631 32.3846 28.8443 32.6996 27.9848 32.9975Z" fill="#4F3AD4"/>
<path d="M26.8958 19.3493C27.8233 19.4004 28.7334 20.081 28.9038 21.017C29.0655 21.8254 28.6742 22.6251 28.172 23.2377C27.3465 24.2246 26.2318 24.931 25.109 25.5352C24.9981 25.6029 24.9046 25.6881 24.8195 25.7818C26.3001 25.4073 27.7804 24.846 28.9803 23.8844C29.6438 23.3313 30.2309 22.5993 30.3587 21.723C30.4778 20.9658 30.1632 20.183 29.6014 19.681C28.9206 19.0596 27.9594 18.8301 27.0572 18.9493C26.5382 19.0173 25.9682 19.1279 25.6109 19.5619C26.0365 19.477 26.4531 19.3067 26.8958 19.3493ZM8.42324 21.7825C9.5377 22.0803 10.6865 22.1655 11.8266 22.2422C12.8477 22.3102 13.8689 22.3273 14.8985 22.3187C17.5531 22.2764 20.2248 22.0975 22.8284 21.519C23.075 21.4595 23.3475 21.4169 23.5689 21.2638C24.0028 20.9828 24.479 20.7616 24.9472 20.5403C22.8284 20.8807 20.7012 21.1703 18.5571 21.3063C16.3874 21.4424 14.2005 21.5275 12.0224 21.3829C11.4013 21.3235 10.763 21.2892 10.1845 21.0509C10.0482 20.9914 9.86097 20.8725 9.92899 20.6935C10.0568 20.4638 10.312 20.3533 10.5332 20.2342C11.4693 19.7917 12.4903 19.545 13.4859 19.2557C11.7754 19.23 10.0736 19.6639 8.50835 20.3362C8.15937 20.5065 7.76801 20.6425 7.48733 20.9319C7.37645 21.0508 7.37645 21.2554 7.50421 21.3572C7.75954 21.587 8.09969 21.6891 8.42324 21.7825ZM22.2075 24.1227C20.7184 24.3865 19.2206 24.6334 17.7145 24.7098C16.0638 24.8204 14.4132 24.7267 12.7796 24.5566C12.4648 24.514 12.1499 24.4631 11.8692 24.3185C11.7246 24.2333 11.58 24.0973 11.5886 23.9183C11.6054 23.6376 11.8435 23.4421 12.0139 23.2377C11.4865 23.425 10.9588 23.6205 10.5164 23.9697C10.329 24.1144 10.1419 24.3439 10.1929 24.5992C10.2698 24.897 10.559 25.0757 10.8142 25.2117C11.4437 25.5352 12.15 25.6797 12.8394 25.8074C14.5833 26.0883 16.3617 26.0969 18.1145 25.9774C19.9698 25.8329 21.816 25.5267 23.6113 24.999C23.1008 24.7695 22.6157 24.5054 22.2075 24.1227ZM12.8562 27.067C12.3797 27.203 11.8947 27.3648 11.5034 27.6793C11.3073 27.8324 11.1544 28.0965 11.2481 28.3432C11.3673 28.658 11.6651 28.8455 11.9456 29.0067C12.6776 29.4068 13.5028 29.5938 14.3111 29.7386C16.1407 30.0277 18.021 29.9853 19.8419 29.6621C20.9224 29.4578 22.0031 29.1685 23.007 28.7177C22.3519 28.4454 21.7139 28.1389 21.1013 27.7817C20.0377 27.9688 18.9653 28.1647 17.8762 28.2327C16.4385 28.3433 14.9833 28.2241 13.5453 28.0455C13.2049 27.9689 12.7796 27.9349 12.5498 27.637C12.4309 27.39 12.7031 27.2113 12.8562 27.067ZM24.4962 32.5378C25.6873 32.2915 26.8872 32.0102 27.9763 31.4573C28.3164 31.2614 28.7334 31.0486 28.8443 30.6404C28.9038 30.2491 28.4953 30.0448 28.206 29.883C28.3847 30.0876 28.5038 30.3853 28.325 30.6234C28.0271 31.0235 27.5169 31.1765 27.0658 31.3296C25.6535 31.7295 24.1898 31.8913 22.7349 32.053C18.8804 32.4018 15.0003 32.487 11.1461 32.1636C9.8527 32.0273 8.53357 31.8827 7.29989 31.4234C7.10438 31.3382 6.80654 31.253 6.80654 30.9891C6.8829 30.7599 7.10438 30.6318 7.29989 30.5212C8.1848 30.0704 9.17184 29.8235 10.1588 29.764C9.86979 29.5937 9.52936 29.5768 9.19754 29.5854C8.37204 29.6109 7.56376 29.8235 6.78111 30.0876C6.10886 30.334 5.41966 30.6065 4.88345 31.1001C4.67079 31.2871 4.47528 31.6444 4.69622 31.8998C5.03665 32.2658 5.56431 32.3592 6.03196 32.4698C8.65272 32.9209 11.3073 33.1758 13.9624 33.2695C17.485 33.372 21.0331 33.2187 24.4962 32.5378ZM27.9848 32.9975C26.3851 33.508 24.726 33.7887 23.0751 34.0185C20.2248 34.3758 17.3487 34.4864 14.4812 34.4015C12.7371 34.3335 10.9929 34.2143 9.2739 33.9248C9.6738 34.1971 10.1674 34.2821 10.627 34.4099C12.5586 34.8184 14.5409 34.8949 16.5066 34.9544C19.3907 35.0055 22.2752 34.8949 25.1173 34.4439C26.4618 34.206 27.8147 33.9165 29.0226 33.2868C29.6526 32.955 30.2909 32.4442 30.401 31.7041C29.7631 32.3846 28.8443 32.6996 27.9848 32.9975Z" fill="white"/>
</svg>
