<svg width="35" height="35" viewBox="0 0 35 35" fill="none" xmlns="http://www.w3.org/2000/svg">
<path d="M34.2215 6C33.6803 6.0175 33.8465 6.17373 32.6829 6.46119C31.3673 6.59683 30.0654 6.84266 28.791 7.19608C24.9978 8.78711 24.2366 14.2251 20.7921 16.1723C18.2137 17.6284 15.6141 17.7446 13.2756 18.477C11.5798 19.0579 10.014 19.9648 8.66629 21.1466C7.58519 22.0778 7.55769 22.8964 6.42785 24.0662C5.22052 25.3161 1.62727 24.0875 0 25.9997C0.524927 26.5296 0.749895 26.6784 1.7885 26.5409C1.57478 26.9471 0.313706 27.2908 0.559922 27.8844C0.819885 28.5094 3.86946 28.938 6.64157 27.2595C7.93264 26.4796 8.96125 25.356 10.9722 25.0886C13.859 24.9334 16.7537 25.1544 19.5835 25.746C19.0582 26.9327 18.3636 28.037 17.5213 29.0243C17.2988 29.2643 17.9675 29.2905 18.7311 29.1493C19.9189 28.9169 21.065 28.5069 22.1307 27.9332C23.4042 27.192 23.5967 25.2911 25.159 24.8799C25.727 25.5503 26.5264 25.9826 27.3984 26.0907C28.2705 26.1988 29.1513 25.9749 29.8658 25.4635C28.5773 25.0986 28.2211 22.3552 28.656 21.1454C29.0684 20.0005 29.4759 18.1696 29.8908 16.6573C30.337 15.0325 30.5007 12.984 31.0407 12.1579C31.7355 11.2368 32.5755 10.4348 33.5278 9.78322C34.0008 9.44608 34.3822 8.99618 34.6373 8.47435C34.8925 7.95251 35.0133 7.37524 34.9889 6.79489C34.9814 6.27746 34.7139 5.98875 34.2215 6.005V6Z" fill="#003653"/>
<path d="M1.11869 27.7745C2.73831 28.0548 4.40509 27.8141 5.87928 27.0871C7.25135 26.2405 8.67007 25.4719 10.1287 24.785C12.4684 24.0351 15.033 24.785 17.5339 24.9362C18.1373 24.9779 18.7431 24.9687 19.3449 24.9087C20.276 24.3363 20.2573 22.1941 21.1634 21.9978C21.106 24.4115 20.2047 26.7288 18.6162 28.5469C19.7927 28.3528 20.9036 27.8731 21.8517 27.1499C22.7997 26.4267 23.556 25.4821 24.0542 24.3988C24.3947 23.7417 24.6871 23.0609 24.9291 22.3615C25.3178 22.6603 25.0978 23.5676 25.2928 24.0588C27.1675 23.0165 28.2336 20.6393 28.9435 18.2346C29.7634 15.4513 30.0996 12.6342 30.6296 11.8105C31.1836 11.0794 31.8757 10.4641 32.6668 9.99952C33.1079 9.76882 33.4908 9.44074 33.7864 9.04014C34.082 8.63954 34.2825 8.17693 34.3728 7.68735C33.4979 7.60611 33.2904 7.40239 33.1605 6.95995C32.7609 7.17584 32.3122 7.28436 31.8581 7.2749C31.4619 7.2874 31.0258 7.2749 30.4933 7.32365C26.0902 7.77608 25.5303 12.6292 22.7082 15.3813C22.4999 15.583 22.2786 15.7709 22.0458 15.9437C21.0214 16.6532 19.9061 17.2216 18.73 17.6335C16.9252 18.3234 15.2092 18.3721 13.5157 18.967C12.2713 19.4054 11.0875 19.9996 9.99245 20.7355C9.74249 20.9105 9.49252 21.0892 9.27505 21.2704C8.73935 21.7296 8.27588 22.2668 7.90024 22.864C7.51216 23.4879 7.06021 24.0697 6.55168 24.6C5.61556 25.5186 2.1198 24.8674 0.888723 25.7248C0.756151 25.8127 0.646463 25.931 0.568768 26.0698C1.23992 26.3747 1.69361 26.1873 2.461 26.2735C2.56224 27.0071 0.867476 27.4421 1.11744 27.7795L1.11869 27.7745Z" fill="#3CA5DB"/>
<path d="M29.0285 9.14474C29.1914 9.28284 29.3928 9.36747 29.6054 9.3871C29.8181 9.40674 30.0316 9.36044 30.217 9.2545C30.4024 9.14856 30.5507 8.98811 30.6417 8.79495C30.7327 8.6018 30.7621 8.3853 30.7258 8.17487C29.7572 8.09364 29.196 8.42234 29.0285 9.14474Z" fill="#003653"/>
<path d="M33.3743 7.88609C33.0621 8.39153 32.8948 8.97304 32.8906 9.56711C32.8906 9.71959 32.7757 9.81707 32.7731 9.58835C32.7709 8.97803 32.9375 8.37897 33.2543 7.85735C33.3643 7.65737 33.4356 7.73986 33.3743 7.88609Z" fill="#003653"/>
<path d="M33.2067 7.74983C32.8093 8.28411 32.5515 8.90918 32.4569 9.56832C32.4419 9.71955 32.3194 9.81829 32.3381 9.57957C32.428 8.90386 32.6858 8.26145 33.088 7.71108C33.2205 7.52611 33.2817 7.61485 33.2067 7.74983Z" fill="#003653"/>
<path d="M33.0554 7.58117C32.543 8.12336 32.1662 8.77903 31.9555 9.49465C31.928 9.64338 31.7981 9.72712 31.8306 9.49465C32.0422 8.76369 32.4209 8.09193 32.9367 7.53242C33.0879 7.35495 33.1404 7.44869 33.0554 7.58117Z" fill="#003653"/>
<path d="M32.9192 7.38723C32.3254 7.97454 31.8497 8.67036 31.5182 9.43694C31.4694 9.58067 31.3294 9.64566 31.3994 9.42194C31.7289 8.63684 32.2096 7.92424 32.8142 7.32474C32.9829 7.16726 33.0229 7.26849 32.9192 7.38848V7.38723Z" fill="#003653"/>
</svg>
