<svg width="35" height="35" viewBox="0 0 35 35" fill="none" xmlns="http://www.w3.org/2000/svg">
<path d="M32.4844 17.5C32.4844 15.4219 30.0781 13.6719 26.25 12.5781C27.2344 8.75 26.9062 5.79688 25.1562 4.70313C24.7188 4.48438 24.2812 4.375 23.7344 4.375C22.0938 4.375 19.9063 5.57812 17.7188 7.65625C15.5313 5.57812 13.4531 4.375 11.7031 4.375C11.1562 4.375 10.7188 4.48438 10.2812 4.70313C8.64062 5.79688 8.3125 8.75 9.1875 12.5781C5.46875 13.6719 2.95312 15.5312 2.95312 17.5C2.95312 19.5781 5.35937 21.3281 9.1875 22.4219C8.3125 26.25 8.64062 29.3125 10.3906 30.2969C10.8281 30.5156 11.2656 30.625 11.8125 30.625C13.4531 30.625 15.6406 29.4219 17.8281 27.3438C20.0156 29.4219 22.0937 30.625 23.8437 30.625C24.3906 30.625 24.8281 30.5156 25.2656 30.2969C27.0156 29.3125 27.3438 26.25 26.4688 22.4219C30.0781 21.3281 32.4844 19.4688 32.4844 17.5ZM23.7344 5.79688C24.0625 5.79688 24.2812 5.79688 24.3906 6.01562C25.2656 6.45312 25.5938 8.20313 25.2656 10.5C25.1562 11.0469 25.0469 11.7031 24.9375 12.25C23.7344 11.9219 22.5312 11.8125 21.1094 11.5938C20.3437 10.5 19.5781 9.51562 18.7031 8.64062C20.6719 6.78125 22.5312 5.79688 23.7344 5.79688ZM21.7656 19.7969C21.3281 20.5625 20.8906 21.3281 20.3438 21.9844C19.4688 22.0938 18.5938 22.0938 17.7188 22.0938C16.8438 22.0938 15.9688 22.0938 15.0938 21.9844C14.6562 21.3281 14.2188 20.5625 13.6719 19.7969C13.2344 19.0312 12.7969 18.2656 12.4688 17.5C12.7969 16.7344 13.2344 15.9688 13.6719 15.2031C14.1094 14.4375 14.6562 13.6719 15.0938 12.9062C15.9688 12.7969 16.8438 12.7969 17.7188 12.7969C18.5938 12.7969 19.4688 12.7969 20.3438 12.9062C20.7812 13.5625 21.3281 14.3281 21.7656 15.2031C22.2031 15.9688 22.6406 16.7344 22.9688 17.5C22.6406 18.2656 22.2031 19.0312 21.7656 19.7969ZM23.7344 19.1406C24.0625 19.9062 24.2812 20.6719 24.5 21.3281C23.7344 21.5469 22.9687 21.6562 22.2031 21.7656C22.4219 21.3281 22.75 20.8906 22.9688 20.4531C23.2969 20.125 23.5156 19.5781 23.7344 19.1406ZM17.7188 25.375C17.1719 24.8281 16.625 24.1719 16.1875 23.5156C16.7344 23.5156 17.2813 23.5156 17.7188 23.5156C18.2656 23.5156 18.8125 23.5156 19.25 23.5156C18.8125 24.1719 18.2656 24.8281 17.7188 25.375ZM13.2344 21.875C12.4688 21.7656 11.7031 21.6562 10.9375 21.4375C11.1562 20.6719 11.4844 19.9062 11.7031 19.25C11.9219 19.6875 12.1406 20.125 12.4688 20.5625C12.7969 21 13.0156 21.4375 13.2344 21.875ZM11.7031 15.8594C11.375 15.0938 11.1562 14.3281 10.8281 13.5625C11.5938 13.3438 12.3594 13.2344 13.2344 13.125C12.9063 13.5625 12.6875 14 12.3594 14.4375C12.25 14.9844 12.0312 15.4219 11.7031 15.8594ZM17.7188 9.625C18.2656 10.1719 18.7031 10.8281 19.25 11.375C18.7031 11.375 18.2656 11.375 17.7188 11.375C17.1719 11.375 16.7344 11.375 16.1875 11.375C16.7344 10.8281 17.2813 10.1719 17.7188 9.625ZM22.9688 14.4375C22.6406 14 22.4219 13.5625 22.0938 13.125C22.9688 13.2344 23.7344 13.3438 24.5 13.5625C24.2812 14.3281 23.9531 15.0938 23.625 15.8594C23.5156 15.4219 23.2969 14.9844 22.9688 14.4375ZM10.2812 10.3906C9.95312 8.09375 10.2812 6.45312 11.1562 5.90625C11.375 5.79688 11.5938 5.6875 11.8125 5.6875C13.0156 5.6875 14.7656 6.67188 16.7344 8.53125C15.9688 9.40625 15.0938 10.3906 14.3281 11.4844C13.0156 11.5938 11.7031 11.8125 10.5 12.1406C10.3906 11.5938 10.2812 10.9375 10.2812 10.3906ZM7.875 20.4531C5.79688 19.5781 4.375 18.375 4.375 17.5C4.375 16.5156 5.6875 15.4219 7.76562 14.5469C8.3125 14.3281 8.85938 14.1094 9.51562 14C9.84375 15.2031 10.2812 16.4062 10.9375 17.6094C10.3906 18.8125 9.95313 20.0156 9.625 21.1094C8.96875 20.8906 8.42188 20.6719 7.875 20.4531ZM11.0469 29.0938C10.1719 28.6562 9.84375 26.9062 10.1719 24.6094C10.2813 24.0625 10.3906 23.4062 10.5 22.75C11.7031 22.9688 12.9062 23.1875 14.2188 23.2969C14.9844 24.3906 15.8594 25.375 16.625 26.25C14.6562 28.1094 12.9062 29.0938 11.7031 29.0938C11.4844 29.2031 11.2656 29.0938 11.0469 29.0938ZM25.2656 24.6094C25.5938 26.9062 25.2656 28.5469 24.3906 29.0938C24.1719 29.2031 23.9531 29.3125 23.7344 29.3125C22.5312 29.3125 20.7813 28.3281 18.8125 26.4688C19.6875 25.5938 20.4531 24.6094 21.2187 23.5156C22.5312 23.4062 23.8437 23.1875 24.9375 22.9688C25.0469 23.4062 25.1562 23.9531 25.2656 24.6094ZM27.6719 20.4531C27.125 20.6719 26.5781 20.8906 25.9219 21C25.5938 19.9063 25.1562 18.7031 24.6094 17.5C25.1562 16.2969 25.5937 15.0938 26.0312 13.8906C26.5781 14.1094 27.2344 14.2188 27.7812 14.4375C29.8594 15.3125 31.1719 16.4062 31.1719 17.3906C31.0625 18.375 29.75 19.5781 27.6719 20.4531Z" fill="#E4405F"/>
<path d="M17.8281 20.2344C19.3594 20.2344 20.5625 19.0312 20.5625 17.5C20.5625 15.9688 19.3594 14.7656 17.8281 14.7656C16.2969 14.7656 15.0938 15.9688 15.0938 17.5C15.0938 19.0312 16.2969 20.2344 17.8281 20.2344Z" fill="#E4405F"/>
</svg>
