<svg width="35" height="35" viewBox="0 0 35 35" fill="none" xmlns="http://www.w3.org/2000/svg">
<g clip-path="url(#clip0_213_101)">
<path d="M27.9684 19.5006C27.0578 19.5018 26.1594 19.7101 25.3411 20.1096C25.0849 19.6844 24.887 19.2267 24.7529 18.7488C24.6758 18.3742 24.6579 17.9898 24.7 17.6096C24.7886 17.1913 24.9034 16.779 25.0439 16.3752C25.0387 16.3224 24.9807 16.0728 24.3976 16.0645C23.8146 16.0562 23.3123 16.1753 23.2585 16.3296C23.1572 16.6115 23.0759 16.9001 23.0151 17.1933C22.5326 18.3838 21.9386 19.5259 21.2411 20.6046C20.8503 19.964 20.6896 19.2093 20.7854 18.465C20.874 18.0467 20.9888 17.6344 21.1293 17.2306C21.1241 17.1778 21.0661 16.9282 20.483 16.9199C19.9 16.9116 19.3977 17.0307 19.3439 17.185C19.29 17.3393 19.2217 17.7028 19.1005 18.0487C18.9793 18.3946 17.5647 21.5553 17.194 22.3703C17.0034 22.7846 16.8387 23.1222 16.7228 23.35C16.7173 23.3648 16.7103 23.379 16.702 23.3925C16.5985 23.5882 16.5436 23.6949 16.5436 23.6949V23.7C16.4638 23.843 16.3789 23.9755 16.3365 23.9755C16.2624 23.6796 16.266 23.3697 16.3468 23.0756C16.5539 21.9789 17.0614 20.2742 17.0562 20.2152C17.0562 20.1831 17.1515 19.8869 16.7279 19.7337C16.6297 19.6869 16.5194 19.6718 16.4122 19.6903C16.305 19.7089 16.2062 19.7602 16.1293 19.8372C16.0921 19.8372 16.0662 19.9273 16.0662 19.9273C16.0662 19.9273 16.527 18.0104 15.1869 18.0104C14.6651 18.1154 14.1695 18.3236 13.7293 18.623C13.2891 18.9223 12.9133 19.3066 12.6238 19.7533C12.2634 19.9491 11.496 20.3675 10.6748 20.8179C10.3641 20.993 10.0389 21.168 9.73757 21.3357C9.71686 21.315 9.69511 21.2881 9.6744 21.2674C8.04332 19.5296 5.04523 18.3035 5.17468 15.9785C5.22232 15.1314 5.51333 12.9069 10.9316 10.205C15.391 8.00746 18.94 8.6164 19.5541 9.96684C20.4333 11.8951 17.6527 15.4752 13.0453 15.9941C12.5356 16.0975 12.0091 16.085 11.5049 15.9576C11.0007 15.8301 10.5315 15.5909 10.1321 15.2578C9.88877 14.9926 9.85149 14.9771 9.76139 15.0299C9.6133 15.1097 9.70857 15.3479 9.76139 15.4856C9.93716 15.8037 10.1749 16.0833 10.4606 16.308C10.7462 16.5326 11.074 16.6977 11.4246 16.7936C13.2371 17.1853 15.1269 16.998 16.8273 16.2582C19.6235 15.178 21.7983 12.1748 21.1603 9.65926C20.5193 7.10648 16.2826 6.26453 12.2727 7.6916C9.76113 8.53674 7.44042 9.86794 5.4429 11.6093C3.23395 13.6753 2.88495 15.4701 3.02786 16.2229C3.54567 18.8927 7.22311 20.6295 8.69471 21.9188C8.62015 21.9613 8.5518 21.9985 8.49381 22.0296C7.75749 22.3952 4.95099 23.8626 4.24781 25.414C3.4535 27.1745 4.37519 28.4328 4.98413 28.6026C5.90168 28.8223 6.86492 28.7499 7.73938 28.3957C8.61383 28.0414 9.35585 27.423 9.86185 26.6267C10.2927 25.9662 10.5576 25.2113 10.6338 24.4264C10.7101 23.6415 10.5956 22.8498 10.2999 22.1187C10.2949 22.1068 10.2879 22.096 10.2792 22.0866L10.856 21.7479C11.232 21.5253 11.6027 21.3192 11.9206 21.1493C11.705 21.7712 11.5785 22.4204 11.5447 23.0776C11.4715 24.085 11.7798 25.0831 12.4084 25.8738C12.5041 25.9561 12.6151 26.0187 12.7351 26.0578C12.8551 26.0969 12.9816 26.1118 13.1074 26.1016C13.7288 26.1016 14.0136 25.5838 14.3253 24.9687C14.7064 24.2168 15.0502 23.3428 15.0502 23.3428C15.0502 23.3428 14.6215 25.705 15.7866 25.705C16.2101 25.705 16.6389 25.154 16.8305 24.8765V24.8817C16.8305 24.8817 16.8408 24.8661 16.8626 24.8289L16.9309 24.718V24.7077C17.1007 24.4115 17.4819 23.7384 18.0483 22.6209C18.7795 21.1804 19.4837 19.3795 19.4837 19.3795C19.5516 19.7753 19.6454 20.1662 19.7643 20.5497C19.9349 21.0146 20.1366 21.4675 20.3681 21.9053C20.1983 22.1435 20.0926 22.2761 20.0926 22.2761L20.0978 22.2813C19.9601 22.4615 19.812 22.6572 19.6473 22.8477C19.1574 23.3863 18.7029 23.9561 18.2865 24.5534C18.2247 24.6537 18.2034 24.7738 18.2271 24.8893C18.2507 25.0048 18.3176 25.1069 18.4139 25.1747C18.6319 25.2882 18.8804 25.3292 19.1233 25.2918C19.4893 25.2711 19.8492 25.1888 20.1879 25.0484C20.5152 24.9332 20.8239 24.771 21.1044 24.5668C21.3936 24.3665 21.6264 24.0951 21.7803 23.7788C21.9343 23.4625 22.0043 23.1119 21.9836 22.7607C21.9511 22.3184 21.8381 21.8856 21.6502 21.4838C21.703 21.4093 21.7537 21.3357 21.8034 21.2612C22.3922 20.3823 22.9229 19.466 23.3921 18.5179C23.46 18.9136 23.5537 19.3046 23.6727 19.6881C23.8134 20.0899 23.9866 20.4795 24.1905 20.8532C23.5132 21.3743 22.9797 22.0593 22.6402 22.8436C22.3068 23.8077 22.5657 24.2417 23.0545 24.3421C23.3219 24.3606 23.5894 24.3058 23.8281 24.1837C24.179 24.0683 24.5096 23.8985 24.8077 23.6804C25.1221 23.4948 25.3854 23.2341 25.574 22.9215C25.7625 22.6089 25.8704 22.2544 25.8879 21.8898C25.8644 21.5258 25.7822 21.1681 25.6445 20.8304C26.5384 20.4812 27.5075 20.3698 28.4572 20.5073C30.9779 20.8034 31.476 22.3765 31.3808 23.0393C31.3361 23.2743 31.2416 23.497 31.1037 23.6924C30.9658 23.8878 30.7877 24.0514 30.5813 24.1723C30.4062 24.2831 30.3483 24.3204 30.3638 24.4001C30.3845 24.5171 30.4673 24.5109 30.6175 24.4902C30.9974 24.3721 31.3326 24.1417 31.5789 23.8292C31.8251 23.5168 31.9709 23.137 31.9969 22.74C32.0767 21.1866 30.5937 19.483 27.9715 19.4986L27.9684 19.5006ZM8.5197 26.054C7.68292 26.9653 6.51786 27.3091 6.01456 27.0181C5.47397 26.7074 5.68627 25.3612 6.71359 24.396C7.323 23.8474 7.98167 23.3562 8.68125 22.9285C8.80345 22.8539 8.98365 22.7483 9.19906 22.6178L9.25705 22.5857L9.38443 22.506C9.56797 23.1209 9.58461 23.7736 9.43265 24.3971C9.28069 25.0206 8.96559 25.5924 8.5197 26.054ZM14.6101 21.9115C14.3191 22.6209 13.7102 24.4384 13.3394 24.3369C13.0215 24.252 12.8216 22.8747 13.2762 21.5139C13.5058 20.8588 13.8402 20.2453 14.2663 19.6974C14.722 19.1889 15.2253 19.0191 15.3464 19.2262C15.2359 20.153 14.9877 21.058 14.6101 21.9115ZM19.6359 24.3162C19.5137 24.3794 19.3977 24.4198 19.3449 24.3908C19.3076 24.3701 19.3977 24.2872 19.3977 24.2872C19.3977 24.2872 20.0284 23.6089 20.277 23.3024C20.4199 23.1222 20.5876 22.9109 20.7699 22.6717V22.74C20.7699 23.5499 19.986 24.0956 19.637 24.3183L19.6359 24.3162ZM23.5132 23.4318C23.4231 23.3686 23.4387 23.1563 23.7411 22.4946C23.9513 22.0696 24.2451 21.6913 24.6048 21.3823C24.6599 21.5391 24.6886 21.7039 24.6897 21.8701C24.6938 22.2238 24.5807 22.5689 24.368 22.8516C24.1554 23.1343 23.8552 23.3387 23.5143 23.4329L23.5132 23.4318Z" fill="#E4405F"/>
</g>
<defs>
<clipPath id="clip0_213_101">
<rect width="35" height="35" fill="white"/>
</clipPath>
</defs>
</svg>
