<svg width="35" height="35" viewBox="0 0 35 35" fill="none" xmlns="http://www.w3.org/2000/svg">
<path d="M32 15.5C32 21.8658 31.8561 23.4378 27.5 26.5C25.2424 28.0871 16.8278 30 14 30C5.71571 30 5.99998 26.665 5.99998 17C6.99998 15.5 10.5 12.5 18.5 11C21.3456 11 25.5 10.5 27.5 7.5C28.813 8.2092 28.5505 4.85001 29.5 6C30.5 9 32 11.2188 32 15.5Z" fill="white"/>
<path d="M29.4656 23.905C25.865 28.7015 18.1767 27.0827 13.2461 27.3146C13.2461 27.3146 12.3725 27.3642 11.4946 27.5086C11.4946 27.5086 11.8271 27.3671 12.2515 27.2198C15.7136 26.0225 17.3498 25.7819 19.4542 24.7013C23.4063 22.6771 27.3409 18.2656 28.1415 13.6836C26.6365 18.0906 22.0602 21.8838 17.8938 23.4238C15.0427 24.4767 9.88315 25.5004 9.88315 25.5004C9.81307 25.4646 9.74355 25.4276 9.6746 25.3896C6.16731 23.6833 6.06523 16.0854 12.4367 13.6369C15.2309 12.5636 17.9011 13.1527 20.9213 12.4338C24.1413 11.6681 27.8717 9.2546 29.3869 6.09877C31.0859 11.1417 33.1275 19.0283 29.4656 23.905ZM29.5269 4.53835C29.1196 5.51506 28.5982 6.44023 27.9738 7.2946C26.6163 5.89554 24.9917 4.78337 23.1963 4.02408C21.4009 3.26478 19.4713 2.87382 17.5219 2.87439C9.46752 2.87439 2.91669 9.42522 2.91669 17.4781C2.91575 19.4869 3.33051 21.4741 4.13489 23.3148C4.93927 25.1554 6.11586 26.8097 7.59065 28.1736L7.91148 28.4565C7.67763 28.2222 7.54638 27.9047 7.54658 27.5737C7.54679 27.2427 7.67843 26.9254 7.91257 26.6914C8.14671 26.4575 8.46418 26.3261 8.79517 26.3262C9.12616 26.3262 9.44357 26.4577 9.67762 26.6918C9.91166 26.9258 10.0432 27.2433 10.0432 27.5742C10.0433 27.9052 9.91193 28.2227 9.67798 28.4568C9.44404 28.691 9.12668 28.8226 8.79569 28.8228C8.4647 28.823 8.14718 28.6918 7.91294 28.4579L8.13023 28.6504C10.7558 30.8702 14.0837 32.0867 17.5219 32.0833C25.219 32.0833 31.5409 26.0925 32.0819 18.5325C32.4815 14.8298 31.3877 10.1281 29.5269 4.53835Z" fill="#4F3AD4"/>
</svg>
