<svg width="35" height="35" viewBox="0 0 35 35" fill="none" xmlns="http://www.w3.org/2000/svg">
<g clip-path="url(#clip0_213_128)">
<path d="M10.25 14.8C11.2167 10.9333 13.6333 9 17.5 9C23.3 9 24.025 13.35 26.925 14.075C28.8583 14.5583 30.55 13.8333 32 11.9C31.0333 15.7667 28.6167 17.7 24.75 17.7C18.95 17.7 18.225 13.35 15.325 12.625C13.3917 12.1417 11.7 12.8667 10.25 14.8ZM3 23.5C3.96667 19.6333 6.38333 17.7 10.25 17.7C16.05 17.7 16.775 22.05 19.675 22.775C21.6083 23.2583 23.3 22.5333 24.75 20.6C23.7833 24.4667 21.3667 26.4 17.5 26.4C11.7 26.4 10.975 22.05 8.075 21.325C6.14167 20.8417 4.45 21.5667 3 23.5Z" fill="#E4405F"/>
</g>
<defs>
<clipPath id="clip0_213_128">
<rect width="35" height="35" fill="white"/>
</clipPath>
</defs>
</svg>
